<?xml version="1.0" encoding="utf-8"?>
<!-- Generator: Adobe Illustrator 17.0.0, SVG Export Plug-In . SVG Version: 6.00 Build 0)  -->
<!DOCTYPE svg PUBLIC "-//W3C//DTD SVG 1.1//EN" "http://www.w3.org/Graphics/SVG/1.1/DTD/svg11.dtd">
<svg version="1.1" id="Layer_1" xmlns="http://www.w3.org/2000/svg" xmlns:xlink="http://www.w3.org/1999/xlink" x="0px" y="0px"
	 width="500px" height="500px" viewBox="0 0 500 500" enable-background="new 0 0 500 500" xml:space="preserve">
<path fill="#070909" d="M498.783,337.67V70.168c0-10.461-8.48-18.942-18.942-18.942H21.492c-10.461,0-18.942,8.48-18.942,18.942
	V337.67H498.783z"/>
<rect x="16.671" y="66.355" fill="#212221" width="469.001" height="248.197"/>
<path fill="#B1B1B1" d="M2.55,337.67v37.54c0,10.461,8.48,18.942,18.942,18.942h458.35c10.461,0,18.942-8.48,18.942-18.942v-37.54
	H2.55z"/>
<path fill="#D0D0CF" d="M6.883,386.127c22.582-2.53,45.151-5.178,67.716-7.865c101.616-12.102,203.963-27.061,306.487-27.019
	c39.528,0.016,78.657,2.6,117.697,6.671V337.67H2.55v37.54c0,4.11,1.323,7.903,3.547,11.007
	C6.358,386.188,6.621,386.157,6.883,386.127z"/>
<rect x="201.245" y="394.151" fill="#D0D0CF" width="98.843" height="42.361"/>
<rect x="186.62" y="436.323" fill="#B1B1B1" width="129.101" height="11.475"/>
<rect x="186.62" y="441.231" fill="#D0D0CF" width="129.101" height="7.395"/>
</svg>
