<?xml version="1.0" encoding="utf-8"?>
<!-- Generator: Adobe Illustrator 17.0.0, SVG Export Plug-In . SVG Version: 6.00 Build 0)  -->
<!DOCTYPE svg PUBLIC "-//W3C//DTD SVG 1.1//EN" "http://www.w3.org/Graphics/SVG/1.1/DTD/svg11.dtd">
<svg version="1.1" id="Layer_1" xmlns="http://www.w3.org/2000/svg" xmlns:xlink="http://www.w3.org/1999/xlink" x="0px" y="0px"
	 width="300px" height="500px" viewBox="0 0 300 500" enable-background="new 0 0 300 500" xml:space="preserve">
<path fill="#B1B1B1" d="M282.744,398.477c0,11.291-9.154,20.445-20.445,20.445H41.19c-11.291,0-20.445-9.154-20.445-20.445V38.544
	c0-11.291,9.154-20.445,20.445-20.445h221.109c11.291,0,20.445,9.154,20.445,20.445V398.477z"/>
<path fill="#D0D0CF" d="M43.263,22.291c1.059,0.818,2.117,1.636,3.176,2.454c3.702,2.678,7.595,4.995,11.636,7.063
	c14.692,5.656,29.442,10.994,43.88,17.652c11.597,5.348,22.576,12.426,32.959,19.833c16.552,11.809,33.243,24.127,47.778,38.447
	c14.56,14.344,27.31,30.797,38.918,47.538c20.648,29.779,33.029,64.896,44.081,99.174c4.491,13.929,8.949,27.86,14.376,41.459
	c0.895,2.243,1.789,4.494,2.677,6.749V38.544c0-11.291-9.154-20.445-20.445-20.445H41.19c-1.638,0-3.224,0.213-4.75,0.577
	C38.739,19.79,41.015,20.988,43.263,22.291z"/>
<rect x="37.635" y="38.291" fill="#070909" width="227.945" height="318.89"/>
<path fill="#212221" d="M86.57,56.958c26.577,23.585,51.801,48.821,74.524,76.165c27.508,33.102,54.109,67.96,73.828,106.396
	c12.086,23.558,22.416,48.148,30.658,73.391V38.291H63.235C71.221,44.248,79.105,50.333,86.57,56.958z"/>
<circle fill="#D0D0CF" cx="159.591" cy="387.82" r="11.621"/>
<circle fill="#B1B1B1" cx="159.591" cy="387.82" r="9.861"/>
<circle fill="#E5E5E5" cx="159.591" cy="387.82" r="9.861"/>
</svg>
