<?xml version="1.0" encoding="utf-8"?>
<!-- Generator: Adobe Illustrator 17.0.0, SVG Export Plug-In . SVG Version: 6.00 Build 0)  -->
<!DOCTYPE svg PUBLIC "-//W3C//DTD SVG 1.1//EN" "http://www.w3.org/Graphics/SVG/1.1/DTD/svg11.dtd">
<svg version="1.1" id="Layer_1" xmlns="http://www.w3.org/2000/svg" xmlns:xlink="http://www.w3.org/1999/xlink" x="0px" y="0px"
	 width="300px" height="500px" viewBox="0 0 300 500" enable-background="new 0 0 300 500" xml:space="preserve">
<path fill="#B1B1B1" d="M210.667,355.476c0,12.843-10.411,23.254-23.254,23.254H113.92c-12.843,0-23.254-10.411-23.254-23.254
	V144.471c0-12.843,10.411-23.254,23.254-23.254h73.493c12.843,0,23.254,10.411,23.254,23.254V355.476z"/>
<path fill="#D0D0CF" d="M187.413,121.217H113.92c-2.503,0-4.911,0.4-7.169,1.132c3.967,2.845,7.746,6.021,11.198,8.954
	c1.572,1.336,3.093,2.738,4.486,4.261c6.167,6.744,12.063,14.075,16.617,22.036c2.116,3.699,3.868,7.577,5.591,11.47
	c6.075,13.724,11.811,27.58,16.611,41.801c3.129,9.27,5.997,18.625,8.869,27.977c3.914,12.745,8.299,25.352,12.047,38.145
	c3.828,13.065,7.037,26.304,9.787,39.637c3.9,18.91,6.96,37.969,9.926,57.043c5.351-4.26,8.785-10.826,8.785-18.197V144.471
	C210.667,131.628,200.256,121.217,187.413,121.217z"/>
<rect x="98.131" y="142.942" fill="#070909" width="105.072" height="188.612"/>
<path fill="#212221" d="M141.65,142.942c1.215,1.664,2.36,3.397,3.43,5.205c2.062,4.885,4.123,9.771,6.185,14.656
	c1.973,5.705,3.978,11.399,5.933,17.111c8.983,26.239,15.604,53.02,20.358,80.34c3.271,18.8,5.779,37.714,8.288,56.628
	c0.648,4.888,1.272,9.779,1.884,14.672h15.474V142.942H141.65z"/>
<circle fill="#D0D0CF" cx="150.667" cy="356.53" r="9.474"/>
<circle fill="#B1B1B1" cx="150.667" cy="356.53" r="8.038"/>
<circle fill="#E5E5E5" cx="150.667" cy="356.53" r="8.038"/>
</svg>
